<svg xmlns="http://www.w3.org/2000/svg" width="45" height="45"><path fill="#fa6e51" d="M0 22.5C0 34.928 10.073 45 22.5 45S45 34.928 45 22.5C45 10.073 34.927 0 22.5 0S0 10.073 0 22.5z"/><path fill="#e8573f" d="M44.944 23.97L34.447 13.475 29.022 8.05a.609.609 0 00-.431-.179H17.62a.61.61 0 00-.609.61v3.046H10.31a.61.61 0 00-.609.61V36.51a.6.6 0 00.266.49c.04.057 7.273 7.29 7.331 7.33.02.028.046.046.069.07a22.54 22.54 0 005.13.594c11.932 0 21.687-9.286 22.448-21.024z"/><path fill="#f4f6f9" d="M35.294 14.573v18.281a.61.61 0 01-.61.61h-6.703v3.047a.61.61 0 01-.61.609H10.31a.61.61 0 01-.609-.61V12.137a.61.61 0 01.61-.61h6.703V8.48a.61.61 0 01.609-.609H28.59a.61.61 0 01.43.179l6.094 6.093a.611.611 0 01.179.431zm-6.094-.61h4.013L29.2 9.95zm-2.438 4.876h-5.484a.61.61 0 01-.61-.61v-5.484h-9.75v23.156h15.844zm-4.875-5.232v4.013h4.014zm12.188 18.638V15.182h-5.484a.61.61 0 01-.61-.609V9.09h-9.75v2.437h3.047a.61.61 0 01.431.179l6.094 6.093a.611.611 0 01.178.431v14.016z"/></svg>