<svg xmlns="http://www.w3.org/2000/svg" width="45" height="45"><path fill="#55acee" d="M22.5 45C34.926 45 45 34.926 45 22.5S34.926 0 22.5 0 0 10.073 0 22.5C0 34.926 10.073 45 22.5 45z"/><path fill="#f1f2f2" d="M36.284 16.172a10.73 10.73 0 01-3.09.846 5.393 5.393 0 002.366-2.975 10.766 10.766 0 01-3.415 1.305 5.373 5.373 0 00-3.927-1.698 5.379 5.379 0 00-5.238 6.604 15.267 15.267 0 01-11.085-5.62 5.355 5.355 0 00-.729 2.704c0 1.865.95 3.512 2.393 4.476a5.34 5.34 0 01-2.436-.673v.068a5.381 5.381 0 004.314 5.273 5.36 5.36 0 01-2.429.093 5.384 5.384 0 005.024 3.735 10.79 10.79 0 01-6.68 2.302c-.433 0-.862-.025-1.282-.075a15.213 15.213 0 008.243 2.416c9.893 0 15.302-8.195 15.302-15.302 0-.233-.005-.465-.015-.696a10.906 10.906 0 002.684-2.783z"/></svg>